<svg width="100" height="100" viewBox="0 0 100 100" fill="none" xmlns="http://www.w3.org/2000/svg">
<g clip-path="url(#clip0_54_3768)">
<path d="M50.146 16.9548C29.108 16.9548 11.9922 34.0707 11.9922 55.1086C11.9922 76.1468 29.108 93.2626 50.146 93.2626C71.1841 93.2626 88.2998 76.1468 88.2998 55.1086C88.2998 34.0705 71.1841 16.9548 50.146 16.9548ZM50.146 90.2921C30.7459 90.2921 14.9627 74.5089 14.9627 55.1086C14.9627 35.7084 30.7459 19.9253 50.146 19.9253C69.5462 19.9253 85.3292 35.7084 85.3292 55.1086C85.3292 74.5089 69.5462 90.2921 50.146 90.2921Z" fill="#D5B772"/>
<path d="M50.1462 30.4578C36.5536 30.4578 25.495 41.5162 25.495 55.1088C25.495 57.3025 25.7836 59.4789 26.3528 61.5774L29.2196 60.7994C28.7188 58.9547 28.4651 57.0398 28.4651 55.1086C28.4651 43.1539 38.1911 33.4281 50.1458 33.4281C53.6272 33.4281 56.9513 34.2275 60.0255 35.8045L61.3812 33.1611C57.8837 31.3673 54.1036 30.4578 50.1462 30.4578Z" fill="#D5B772"/>
<path d="M30.6174 64.5383L27.9434 65.8321C29.5018 69.0532 31.7962 71.9547 34.5782 74.2229L36.4553 71.9208C34.0071 69.9245 31.9883 67.3717 30.6174 64.5383Z" fill="#D5B772"/>
<path d="M65.18 35.571L63.3671 37.9238C68.7433 42.0668 71.8269 48.3302 71.8269 55.1082C71.8269 67.0629 62.1009 76.7889 50.1462 76.7889C45.8901 76.7889 41.7712 75.5567 38.2339 73.2262L36.5995 75.7065C40.6233 78.3578 45.3075 79.7594 50.1462 79.7594C63.739 79.7594 74.7974 68.701 74.7974 55.1082C74.7972 47.4019 71.2917 40.2808 65.18 35.571Z" fill="#D5B772"/>
<path d="M12.4893 9.38635V26.5866H9.21506V9.38635H6.24454V26.5866H2.97051V9.38635H0V26.5866V29.1473V29.5571H0.0111328C0.198633 33.128 2.8209 36.0634 6.24474 36.7325V91.7775H9.21525V36.7325C12.6389 36.0632 15.2612 33.128 15.4489 29.5569H15.46V29.1471V26.5864V9.38635H12.4893ZM7.7299 33.9065C5.24357 33.9065 3.19649 31.9899 2.98809 29.5569H12.4719C12.2631 31.9899 10.216 33.9065 7.7299 33.9065Z" fill="#D5B772"/>
<path d="M97.525 8.25064C93.1332 10.9325 90.4047 15.7952 90.4047 20.9411V53.4435H97.0295V91.7774H100V53.4433V35.3919V6.73755L97.525 8.25064ZM97.0297 35.3917V50.4728H93.3752V20.9409C93.3752 17.694 94.7322 14.5883 97.0297 12.3674V35.3917Z" fill="#D5B772"/>
</g>
<defs>
<clipPath id="clip0_54_3768">
<rect width="100" height="100" fill="white"/>
</clipPath>
</defs>
</svg>
