<svg width="100" height="100" viewBox="0 0 100 100" fill="none" xmlns="http://www.w3.org/2000/svg">
<g clip-path="url(#clip0_122_58)">
<path d="M91.8336 87.2657C91.5359 86.8286 91.041 86.5673 90.5123 86.5673H82.0361V56.8804C82.0361 55.9972 81.3203 55.2812 80.4369 55.2812C79.5535 55.2812 78.8377 55.9972 78.8377 56.8804V86.5671H21.1619V55.8022C21.5598 55.7808 21.9709 55.7468 22.3918 55.6966C26.9893 55.1464 30.5252 52.9591 32.6187 49.3708C34.3443 46.4124 37.517 44.4335 41.3232 43.9409C45.0582 43.4577 48.8324 44.5065 50.9389 46.6132C56.6404 52.3147 63.7393 53.3759 70.4162 49.5235C72.1945 48.4978 73.8809 48.2356 75.5711 48.7218C79.482 49.8468 82.0361 54.5936 82.0602 54.6386C82.4022 55.2897 83.1437 55.6241 83.8588 55.4476C84.573 55.2714 85.075 54.6308 85.075 53.8948V36.0673C85.075 33.7675 84.4426 31.5202 83.2463 29.5681C82.785 28.8149 81.8004 28.5788 81.0473 29.0403C80.2941 29.5019 80.058 30.4864 80.5193 31.2396C81.4074 32.6884 81.8768 34.3579 81.8768 36.0675V49.0983C80.4992 47.6843 78.6779 46.2919 76.4725 45.6528C73.9334 44.9175 71.358 45.2874 68.8182 46.7528C63.4141 49.871 57.8674 49.0177 53.201 44.3511C50.376 41.5261 45.6666 40.1536 40.9133 40.7687C36.1158 41.3894 32.0859 43.937 29.8566 47.7589C28.2797 50.4626 25.6703 52.061 22.1018 52.5097C20.527 52.7077 19.0896 52.6321 18.1236 52.5257V36.0677C18.1236 30.9651 22.275 26.814 27.3773 26.814H72.6225C74.1197 26.814 75.5479 27.1601 76.867 27.8423C77.6506 28.2478 78.6158 27.9413 79.0219 27.1565C79.4275 26.3722 79.1209 25.4073 78.3361 25.0015C76.5834 24.0948 74.6078 23.6157 72.6223 23.6157H51.5363V20.9638C53.3641 20.6831 55.1217 19.8423 56.5262 18.4376H56.5264C60.0367 14.9269 60.0367 9.21475 56.5264 5.70439L51.2908 0.468457C50.666 -0.156152 49.6537 -0.156152 49.0293 0.468457L43.7936 5.7042C42.0928 7.40479 41.1562 9.66592 41.1562 12.071C41.1562 14.4761 42.093 16.737 43.7936 18.4378C45.0838 19.7282 46.6721 20.5423 48.3385 20.8841V23.6159H27.3775C20.5115 23.6159 14.9256 29.2019 14.9256 36.0679V53.8954C14.9256 54.6411 15.4408 55.2878 16.1676 55.4542C16.2234 55.4669 16.9008 55.6185 17.9639 55.7255V86.5673H9.4875C8.95879 86.5673 8.46386 86.8288 8.16621 87.2657C7.86836 87.7028 7.80586 88.2589 7.99922 88.7513L12.0205 98.9858C12.2611 99.5978 12.8516 100 13.5088 100H20.3629C21.2463 100 21.9621 99.2841 21.9621 98.4009C21.9621 97.5177 21.2463 96.8017 20.3629 96.8017H14.5988L11.834 89.7655H88.1658L85.4008 96.8018H25.9066C25.0232 96.8018 24.3074 97.5179 24.3074 98.4011C24.3074 99.2843 25.0234 100 25.9066 100H86.4906C87.148 100 87.7387 99.5978 87.9789 98.9858L92.0004 88.7513C92.1941 88.2589 92.1316 87.7028 91.8336 87.2657ZM46.0547 16.1765C44.9578 15.0798 44.3541 13.6222 44.3541 12.0714C44.3541 10.5206 44.958 9.06279 46.0547 7.96631L50.1598 3.86123L54.2648 7.96631C56.5283 10.2298 56.5283 13.913 54.265 16.1765C53.4853 16.9562 52.5371 17.4671 51.5365 17.7097V14.0233C51.5365 13.1401 50.8207 12.4241 49.9373 12.4241C49.0539 12.4241 48.3381 13.1401 48.3381 14.0233V17.5813C47.5029 17.3067 46.7178 16.8394 46.0547 16.1765Z" fill="#D5B772"/>
<path d="M33.5287 64.6054C34.4119 64.6054 35.1279 63.8894 35.1279 63.0062C35.1279 62.123 34.4119 61.407 33.5287 61.407C32.6455 61.407 31.9295 62.123 31.9295 63.0062C31.9295 63.8894 32.6455 64.6054 33.5287 64.6054Z" fill="#D5B772"/>
<path d="M51.919 64.0234C52.8022 64.0234 53.5182 63.3074 53.5182 62.4242C53.5182 61.5409 52.8022 60.825 51.919 60.825C51.0357 60.825 50.3197 61.5409 50.3197 62.4242C50.3197 63.3074 51.0357 64.0234 51.919 64.0234Z" fill="#D5B772"/>
<path d="M65.5117 67.5905C66.395 67.5905 67.1109 66.8745 67.1109 65.9913C67.1109 65.1081 66.395 64.3921 65.5117 64.3921C64.6285 64.3921 63.9125 65.1081 63.9125 65.9913C63.9125 66.8745 64.6285 67.5905 65.5117 67.5905Z" fill="#D5B772"/>
<path d="M68.1236 80.4414C69.0069 80.4414 69.7228 79.7254 69.7228 78.8421C69.7228 77.9589 69.0069 77.2429 68.1236 77.2429C67.2404 77.2429 66.5244 77.9589 66.5244 78.8421C66.5244 79.7254 67.2404 80.4414 68.1236 80.4414Z" fill="#D5B772"/>
<path d="M51.8656 75.2665C52.7489 75.2665 53.4649 74.5506 53.4649 73.6673C53.4649 72.7841 52.7489 72.0681 51.8656 72.0681C50.9824 72.0681 50.2664 72.7841 50.2664 73.6673C50.2664 74.5506 50.9824 75.2665 51.8656 75.2665Z" fill="#D5B772"/>
<path d="M37.3666 79.9575C38.2498 79.9575 38.9658 79.2415 38.9658 78.3582C38.9658 77.475 38.2498 76.759 37.3666 76.759C36.4834 76.759 35.7674 77.475 35.7674 78.3582C35.7674 79.2415 36.4834 79.9575 37.3666 79.9575Z" fill="#D5B772"/>
</g>
<defs>
<clipPath id="clip0_122_58">
<rect width="100" height="100" fill="white"/>
</clipPath>
</defs>
</svg>
