<svg width="100" height="100" viewBox="0 0 100 100" fill="none" xmlns="http://www.w3.org/2000/svg">
<path d="M76.5625 10.9375V14.0625" stroke="#D5B772" stroke-width="3" stroke-linecap="round" stroke-linejoin="round"/>
<path d="M76.5625 20.3125V23.4375" stroke="#D5B772" stroke-width="3" stroke-linecap="round" stroke-linejoin="round"/>
<path d="M70.3125 17.1875H73.4375" stroke="#D5B772" stroke-width="3" stroke-linecap="round" stroke-linejoin="round"/>
<path d="M79.6875 17.1875H82.8125" stroke="#D5B772" stroke-width="3" stroke-linecap="round" stroke-linejoin="round"/>
<path d="M93.8781 40.1047C93.8787 40.4352 93.7813 40.7584 93.5982 41.0335C93.415 41.3086 93.1543 41.5232 92.8492 41.6501C92.544 41.777 92.2081 41.8105 91.8839 41.7464C91.5597 41.6823 91.2617 41.5235 91.0278 41.29C90.7939 41.0565 90.6345 40.7589 90.5698 40.4348C90.5051 40.1107 90.538 39.7747 90.6644 39.4693C90.7907 39.1639 91.0048 38.9029 91.2795 38.7192C91.5543 38.5355 91.8773 38.4375 92.2078 38.4375C92.6501 38.4379 93.0743 38.6136 93.3873 38.9261C93.7004 39.2386 93.8769 39.6624 93.8781 40.1047Z" fill="#D5B772"/>
<path d="M14.1906 72.9172C14.1912 73.2477 14.0938 73.5709 13.9106 73.846C13.7275 74.1211 13.4668 74.3357 13.1617 74.4626C12.8565 74.5895 12.5206 74.623 12.1963 74.5589C11.8721 74.4948 11.5742 74.336 11.3403 74.1025C11.1064 73.869 10.947 73.5714 10.8823 73.2473C10.8176 72.9232 10.8505 72.5872 10.9768 72.2818C11.1032 71.9764 11.3172 71.7154 11.592 71.5317C11.8667 71.348 12.1898 71.25 12.5203 71.25C12.9626 71.2504 13.3868 71.4261 13.6998 71.7386C14.0129 72.0511 14.1894 72.4749 14.1906 72.9172Z" fill="#D5B772"/>
<path d="M7.03125 92.1875C9.18861 92.1875 10.9375 90.4386 10.9375 88.2812C10.9375 86.1239 9.18861 84.375 7.03125 84.375C4.87389 84.375 3.125 86.1239 3.125 88.2812C3.125 90.4386 4.87389 92.1875 7.03125 92.1875Z" stroke="#D5B772" stroke-width="3" stroke-linecap="round" stroke-linejoin="round"/>
<path d="M25 57.8125V91.4937C25 92.5063 25.4021 93.4774 26.1179 94.1935C26.8337 94.9096 27.8047 95.3121 28.8172 95.3125H47.7437C48.7565 95.3125 49.7279 94.9102 50.444 94.194C51.1602 93.4779 51.5625 92.5065 51.5625 91.4937V45.2797C51.5606 42.5133 50.6384 39.8261 48.941 37.6416C47.2436 35.4571 44.8677 33.8994 42.1875 33.2141V9.375H34.375V33.2141C32.2197 33.7669 30.2513 34.8857 28.6734 36.4547" stroke="#D5B772" stroke-width="3" stroke-linecap="round" stroke-linejoin="round"/>
<path d="M31.9391 51.5625H51.1437" stroke="#D5B772" stroke-width="3" stroke-linecap="round" stroke-linejoin="round"/>
<path d="M51.0828 84.375H25.6313" stroke="#D5B772" stroke-width="3" stroke-linecap="round" stroke-linejoin="round"/>
<path d="M34.375 19.5312H42.1875" stroke="#D5B772" stroke-width="3" stroke-linecap="round" stroke-linejoin="round"/>
<path d="M34.375 29.6875H42.1875" stroke="#D5B772" stroke-width="3" stroke-linecap="round" stroke-linejoin="round"/>
<path d="M70.3125 76.5625V95.3125" stroke="#D5B772" stroke-width="3" stroke-linecap="round" stroke-linejoin="round"/>
<path d="M64.0625 95.3125H76.5625" stroke="#D5B772" stroke-width="3" stroke-linecap="round" stroke-linejoin="round"/>
<path d="M81.0156 64.3328L80.6812 62.5L78.125 48.4375H62.5L59.9437 62.5L59.6094 64.3328C59.399 65.3759 59.3726 66.4478 59.5312 67.5C59.966 70.0445 61.2868 72.3533 63.2598 74.0178C65.2329 75.6823 67.7311 76.5953 70.3125 76.5953C72.8939 76.5953 75.3921 75.6823 77.3652 74.0178C79.3382 72.3533 80.659 70.0445 81.0937 67.5C81.2524 66.4478 81.2259 65.3759 81.0156 64.3328Z" stroke="#D5B772" stroke-width="3" stroke-linecap="round" stroke-linejoin="round"/>
<path d="M38.2812 75.8735C40.058 75.8735 41.4984 74.4331 41.4984 72.6563C41.4984 70.8795 40.058 69.4391 38.2812 69.4391C36.5044 69.4391 35.0641 70.8795 35.0641 72.6563C35.0641 74.4331 36.5044 75.8735 38.2812 75.8735Z" stroke="#D5B772" stroke-width="3" stroke-linecap="round" stroke-linejoin="round"/>
<path d="M44.8063 66.9141C44.8063 67.5505 44.6175 68.1725 44.264 68.7016C43.9104 69.2307 43.4078 69.6431 42.8199 69.8865C42.2319 70.13 41.585 70.1936 40.9609 70.0693C40.3367 69.9451 39.7635 69.6385 39.3136 69.1884C38.8638 68.7383 38.5575 68.1649 38.4335 67.5408C38.3096 66.9166 38.3735 66.2697 38.6172 65.6818C38.861 65.094 39.2736 64.5917 39.8028 64.2383C40.3321 63.885 40.9543 63.6966 41.5906 63.6969C42.0131 63.6969 42.4313 63.7801 42.8216 63.9418C43.2118 64.1035 43.5664 64.3405 43.865 64.6393C44.1636 64.9381 44.4004 65.2927 44.5619 65.683C44.7234 66.0734 44.8065 66.4917 44.8063 66.9141Z" stroke="#D5B772" stroke-width="3" stroke-linecap="round" stroke-linejoin="round"/>
<path d="M35.1562 70.1313C36.933 70.1313 38.3734 68.6909 38.3734 66.9141C38.3734 65.1373 36.933 63.6969 35.1562 63.6969C33.3794 63.6969 31.9391 65.1373 31.9391 66.9141C31.9391 68.6909 33.3794 70.1313 35.1562 70.1313Z" stroke="#D5B772" stroke-width="3" stroke-linecap="round" stroke-linejoin="round"/>
<path d="M37.5 64.0625C37.5488 62.6665 38.0243 61.319 38.8624 60.2015C39.7005 59.084 40.861 58.2502 42.1875 57.8125" stroke="#D5B772" stroke-width="3" stroke-linecap="round" stroke-linejoin="round"/>
<path d="M31.25 51.5625H10.9375" stroke="#D5B772" stroke-width="3" stroke-linecap="round" stroke-linejoin="round"/>
<path d="M10.9375 40.625H31.25" stroke="#D5B772" stroke-width="3" stroke-linecap="round" stroke-linejoin="round"/>
<path d="M21.0938 57.8125C27.5658 57.8125 32.8125 52.5658 32.8125 46.0938C32.8125 39.6217 27.5658 34.375 21.0938 34.375C14.6217 34.375 9.375 39.6217 9.375 46.0938C9.375 52.5658 14.6217 57.8125 21.0938 57.8125Z" stroke="#D5B772" stroke-width="3" stroke-linecap="round" stroke-linejoin="round"/>
<path d="M80.4203 62.5H60.9375" stroke="#D5B772" stroke-width="3" stroke-linejoin="round"/>
</svg>
