<svg width="100" height="100" viewBox="0 0 100 100" fill="none" xmlns="http://www.w3.org/2000/svg">
<path d="M72.6111 34.446L78.5623 28.4949L74.3221 23.5603H64.1062L59.866 28.4949L65.8172 34.446C60.0443 35.0865 54.5559 37.349 50.0004 40.9904C45.4449 37.349 39.9564 35.0865 34.1836 34.446L40.1348 28.4949L35.8945 23.5603H25.6787L21.4385 28.4949L27.3896 34.446C12.0061 36.1423 0 49.2164 0 65.0437C0 82.0191 13.8105 95.8298 30.7861 95.8298C37.785 95.8298 44.5582 93.447 50 89.097C55.4418 93.447 62.2152 95.8298 69.2139 95.8298C86.1895 95.8298 100 82.0191 100 65.0437C100 49.2164 87.9939 36.1423 72.6111 34.446ZM63.9135 28.3417L65.4701 26.5302H72.9578L74.5143 28.3417L69.2139 33.6421L63.9135 28.3417ZM25.4855 28.3417L27.0422 26.5302H34.5299L36.0863 28.3417L30.7859 33.6421L25.4855 28.3417ZM30.7861 92.8595C15.4484 92.8595 2.97031 80.3814 2.97031 65.0437C2.97031 49.706 15.4484 37.2279 30.7861 37.2279C37.4926 37.2279 43.9703 39.6482 49.0258 44.0431C50.5951 45.4072 52.0156 46.9529 53.248 48.6373C56.7506 53.424 58.602 59.0972 58.602 65.0439C58.602 70.4292 57.0834 75.5908 54.1951 80.0724C54.1576 80.0349 54.1217 79.9962 54.0846 79.9585C53.9217 79.7931 53.7605 79.6261 53.6031 79.4558C53.5334 79.3804 53.4654 79.3033 53.3971 79.2269C53.268 79.0832 53.1402 78.938 53.0152 78.7908C52.9434 78.7062 52.8725 78.621 52.802 78.5353C52.6813 78.3886 52.5627 78.2398 52.4459 78.09C52.3801 78.0056 52.3141 77.9214 52.2496 77.8361C52.1217 77.6667 51.9971 77.4947 51.8744 77.3212C51.8363 77.2675 51.7971 77.2148 51.7594 77.1605C53.8857 73.4867 55.0053 69.3181 55.0053 65.0439C55.0053 60.7617 53.8805 56.5867 51.7465 52.9078L51.7584 52.889L51.2545 52.0937C50.2812 50.5587 49.1418 49.1412 47.8547 47.8628C47.4256 47.4367 46.9801 47.0259 46.5189 46.6316L45.3014 45.5902L45.2699 45.6332C41.1021 42.522 36.018 40.8246 30.7863 40.8246C17.4318 40.8246 6.56719 51.6894 6.56719 65.0437C6.56719 78.398 17.4318 89.2626 30.7863 89.2626C36.0311 89.2626 41.1275 87.557 45.301 84.4312C45.3195 84.4542 45.3393 84.4763 45.3578 84.4992C45.4631 84.6283 45.5711 84.7552 45.6783 84.8828C45.7609 84.9806 45.8426 85.0794 45.9262 85.1763C46.0406 85.3085 46.1576 85.4384 46.2742 85.5689C46.3541 85.6582 46.4328 85.7486 46.5137 85.8369C46.6418 85.9767 46.7727 86.1138 46.9033 86.2513C46.9756 86.3273 47.0467 86.405 47.1197 86.4802C47.2789 86.6445 47.4412 86.8056 47.6041 86.9662C47.6486 87.0101 47.6918 87.0552 47.7363 87.099C42.8918 90.8246 36.935 92.8595 30.7861 92.8595ZM56.4604 48.0546C60.1258 45.3017 64.6027 43.7949 69.2139 43.7949C80.9305 43.7949 90.4627 53.3271 90.4627 65.0437C90.4627 76.7603 80.9305 86.2921 69.2139 86.2921C64.6029 86.2921 60.1258 84.7853 56.4604 82.0324C59.8084 76.9896 61.5721 71.1466 61.5721 65.0433C61.5721 58.9404 59.8086 53.0972 56.4604 48.0546ZM50 74.1189C48.6652 71.2959 47.9652 68.2039 47.9652 65.0437C47.9652 61.8835 48.6652 58.7914 50 55.9685C51.3348 58.7915 52.0348 61.8835 52.0348 65.0437C52.0348 68.2039 51.3348 71.2959 50 74.1189ZM43.5396 48.0546C40.1916 53.0974 38.4279 58.9404 38.4279 65.0437C38.4279 71.1468 40.1914 76.99 43.5396 82.0328C39.8742 84.7857 35.3971 86.2925 30.7861 86.2925C19.0695 86.2925 9.5373 76.7605 9.5373 65.0439C9.5373 53.3273 19.0695 43.7949 30.7861 43.7949C35.3973 43.7949 39.8742 45.3017 43.5396 48.0546ZM69.2139 92.8595C62.5074 92.8595 56.0297 90.4392 50.9742 86.0443C49.4051 84.6804 47.9844 83.1345 46.752 81.4501C43.2494 76.6634 41.398 70.9902 41.398 65.0437C41.398 59.6583 42.9166 54.4966 45.8047 50.0152C45.8426 50.0531 45.8789 50.0921 45.9164 50.1302C46.0791 50.2953 46.2398 50.4619 46.3969 50.632C46.4662 50.707 46.5338 50.7839 46.602 50.8599C46.7316 51.0043 46.8598 51.15 46.9855 51.298C47.0566 51.3818 47.127 51.4664 47.1969 51.5511C47.3184 51.6988 47.4377 51.8484 47.5553 51.9992C47.6205 52.0828 47.6859 52.1662 47.75 52.2509C47.8779 52.4203 48.0023 52.5923 48.1252 52.7656C48.1635 52.8197 48.2029 52.8726 48.2406 52.9271C46.1143 56.6009 44.9947 60.7695 44.9947 65.0439C44.9947 69.3261 46.1195 73.5009 48.2535 77.1798L48.2414 77.1986L48.7455 77.9939C50.043 80.0404 51.6361 81.8783 53.4809 83.456L54.6984 84.4974L54.7299 84.4543C58.8979 87.5654 63.9816 89.2628 69.2135 89.2628C82.568 89.2628 93.4326 78.3984 93.4326 65.0439C93.4326 51.6894 82.5682 40.825 69.2135 40.825C63.9687 40.825 58.8723 42.5306 54.6988 45.6566C54.6803 45.6335 54.6605 45.6115 54.642 45.5886C54.5369 45.4597 54.4293 45.333 54.3221 45.2058C54.2393 45.1076 54.1572 45.0084 54.0732 44.9113C53.96 44.7804 53.8441 44.6517 53.7287 44.5228C53.6475 44.4322 53.5676 44.3402 53.4854 44.2505C53.36 44.1136 53.2318 43.9796 53.1043 43.8453C53.0291 43.766 52.9553 43.6855 52.8791 43.6068C52.7266 43.4496 52.5711 43.2955 52.4156 43.1416C52.3645 43.091 52.3148 43.039 52.2633 42.9886C57.1078 39.263 63.0645 37.2283 69.2137 37.2283C84.5514 37.2283 97.0295 49.7064 97.0295 65.0441C97.0297 80.3816 84.5516 92.8595 69.2139 92.8595Z" fill="#D5B772"/>
<path d="M51.4851 4.17017H48.5148V13.417H51.4851V4.17017Z" fill="#D5B772"/>
<path d="M62.8297 6.86492L58.9479 15.2572L61.6436 16.5041L65.5253 8.11177L62.8297 6.86492Z" fill="#D5B772"/>
<path d="M37.1684 6.86557L34.4727 8.11243L38.3545 16.5047L41.0502 15.2579L37.1684 6.86557Z" fill="#D5B772"/>
</svg>
