<svg width="100" height="100" viewBox="0 0 100 100" fill="none" xmlns="http://www.w3.org/2000/svg">
<g clip-path="url(#clip0_122_9)">
<path d="M21.6666 39.1665C21.6666 40.5448 22.7883 41.6665 24.1666 41.6665C25.5449 41.6665 26.6666 40.5448 26.6666 39.1665C26.6666 37.7882 25.5449 36.6665 24.1666 36.6665C22.7883 36.6665 21.6666 37.7882 21.6666 39.1665ZM25 39.1665C25 39.6265 24.625 39.9999 24.1666 39.9999C23.7082 39.9999 23.3332 39.6267 23.3332 39.1665C23.3332 38.7065 23.7082 38.3331 24.1666 38.3331C24.625 38.3331 25 38.7065 25 39.1665Z" fill="#D5B772"/>
<path d="M81.76 17.9634C82.2049 18.4568 82.9067 18.6333 83.5299 18.42L85.6865 17.6818L87.1781 19.5218C87.5014 19.9218 87.9797 20.1402 88.4731 20.1402C88.658 20.1402 88.8481 20.1085 89.0297 20.0435C89.6947 19.8085 90.1397 19.1784 90.1397 18.4736V16.17L92.5514 14.965C93.1164 14.6816 93.4731 14.105 93.4731 13.4734C93.4731 12.8417 93.1164 12.265 92.5514 11.9818L90.1397 10.7767V8.47336C90.1397 7.75168 89.6746 7.11164 88.9879 6.8884C88.3045 6.66848 87.5496 6.90832 87.1246 7.49348L85.7397 9.40012L83.5529 8.61672C82.9297 8.39348 82.2246 8.56164 81.7713 9.05168C81.3162 9.53996 81.1981 10.2517 81.468 10.8616L82.6529 13.5366L81.4713 16.1566C81.2 16.7634 81.3117 17.4736 81.76 17.9634ZM86.0666 13.0318C86.4467 13.1001 86.8365 13.0302 87.1699 12.845C87.3182 13.03 87.5067 13.1866 87.7283 13.2984L88.0799 13.4734L87.7283 13.6484C87.4449 13.7917 87.2117 14.0083 87.0516 14.2683C86.8067 14.1333 86.5299 14.0632 86.25 14.0632C86.1867 14.0632 86.1233 14.065 86.0584 14.0732C86.1717 13.7368 86.175 13.37 86.0666 13.0318Z" fill="#D5B772"/>
<path d="M48.3334 9.6916V26.6666C48.3334 27.5865 49.0783 28.3332 50 28.3332C50.9217 28.3332 51.6666 27.5865 51.6666 26.6666V9.69336C53.6018 9.00176 55 7.16992 55 5C55 2.24336 52.7566 0 50 0C47.2434 0 45 2.24336 45 5C45 7.16992 46.3984 9.00176 48.3334 9.6916ZM50 3.3334C50.9199 3.3334 51.6666 4.08164 51.6666 5C51.6666 5.91836 50.9199 6.6666 50 6.6666C49.0801 6.6666 48.3334 5.91836 48.3334 5C48.3334 4.08164 49.0801 3.3334 50 3.3334Z" fill="#D5B772"/>
<path d="M73.3334 39.1665C73.3334 40.5448 74.4551 41.6665 75.8334 41.6665C77.2117 41.6665 78.3334 40.5448 78.3334 39.1665C78.3334 37.7882 77.2117 36.6665 75.8334 36.6665C74.4551 36.6665 73.3334 37.7882 73.3334 39.1665ZM76.6666 39.1665C76.6666 39.6265 76.2916 39.9999 75.8332 39.9999C75.3748 39.9999 75 39.6267 75 39.1665C75 38.7065 75.375 38.3331 75.8334 38.3331C76.2918 38.3331 76.6666 38.7065 76.6666 39.1665Z" fill="#D5B772"/>
<path d="M60.8334 26.6665C62.2117 26.6665 63.3334 25.5448 63.3334 24.1665C63.3334 22.7882 62.2117 21.6665 60.8334 21.6665C59.4551 21.6665 58.3334 22.7882 58.3334 24.1665C58.3334 25.5448 59.4551 26.6665 60.8334 26.6665ZM60.8334 23.3333C61.2918 23.3333 61.6668 23.7065 61.6668 24.1667C61.6668 24.6269 61.2918 25.0001 60.8334 25.0001C60.375 25.0001 60 24.6269 60 24.1667C60 23.7065 60.375 23.3333 60.8334 23.3333Z" fill="#D5B772"/>
<path d="M62.1551 37.845C62.4801 38.17 62.9068 38.3333 63.3334 38.3333C63.7602 38.3333 64.1867 38.17 64.5117 37.845L79.5117 22.845C80.1635 22.1932 80.1635 21.1399 79.5117 20.4883C78.8602 19.8366 77.8066 19.8366 77.1551 20.4883L62.1551 35.4883C61.5033 36.1401 61.5033 37.1934 62.1551 37.845Z" fill="#D5B772"/>
<path d="M39.1666 26.6665C40.5449 26.6665 41.6666 25.5448 41.6666 24.1665C41.6666 22.7882 40.5449 21.6665 39.1666 21.6665C37.7883 21.6665 36.6666 22.7882 36.6666 24.1665C36.6666 25.5448 37.7883 26.6665 39.1666 26.6665ZM39.1666 23.3333C39.625 23.3333 40 23.7065 40 24.1667C40 24.6269 39.625 24.9999 39.1666 24.9999C38.7082 24.9999 38.3332 24.6267 38.3332 24.1665C38.3332 23.7063 38.7084 23.3333 39.1666 23.3333Z" fill="#D5B772"/>
<path d="M35.4883 37.8448C35.8133 38.1698 36.2401 38.3331 36.6666 38.3331C37.0934 38.3331 37.5199 38.1698 37.8449 37.8464C38.4967 37.1947 38.4967 36.1398 37.8449 35.488L22.8799 20.5148C22.2281 19.863 21.1733 19.8648 20.5215 20.5148C19.8715 21.1648 19.8715 22.2214 20.5215 22.8714L35.4883 37.8448Z" fill="#D5B772"/>
<path d="M66.1783 63.8216C65.5268 63.1698 64.4732 63.1698 63.8217 63.8216C63.1699 64.4731 63.1699 65.5267 63.8217 66.1782L77.1551 79.5116C77.4801 79.8366 77.9068 79.9999 78.3334 79.9999C78.7601 79.9999 79.1867 79.8366 79.5117 79.5116C80.1635 78.8601 80.1635 77.8065 79.5117 77.155L66.1783 63.8216Z" fill="#D5B772"/>
<path d="M60.8334 73.3335C59.4551 73.3335 58.3334 74.4552 58.3334 75.8335C58.3334 77.2118 59.4551 78.3335 60.8334 78.3335C62.2117 78.3335 63.3334 77.2118 63.3334 75.8335C63.3334 74.4552 62.2117 73.3335 60.8334 73.3335ZM60.8334 76.6667C60.375 76.6667 60 76.2935 60 75.8333C60 75.3733 60.375 74.9999 60.8334 74.9999C61.2918 74.9999 61.6668 75.3731 61.6668 75.8333C61.6666 76.2935 61.2916 76.6667 60.8334 76.6667Z" fill="#D5B772"/>
<path d="M78.3334 60.8335C78.3334 59.4552 77.2117 58.3335 75.8334 58.3335C74.4551 58.3335 73.3334 59.4552 73.3334 60.8335C73.3334 62.2118 74.4551 63.3335 75.8334 63.3335C77.2117 63.3335 78.3334 62.2118 78.3334 60.8335ZM75 60.8335C75 60.3735 75.375 60.0001 75.8334 60.0001C76.2918 60.0001 76.6668 60.3733 76.6668 60.8335C76.6668 61.2937 76.2918 61.6669 75.8334 61.6669C75.375 61.6669 75 61.2935 75 60.8335Z" fill="#D5B772"/>
<path d="M7.35331 13.015L9.25995 14.4L8.47655 16.5849C8.25155 17.2132 8.42323 17.9132 8.91151 18.3683C9.2248 18.6599 9.63144 18.8132 10.0449 18.8132C10.2732 18.8132 10.5049 18.7666 10.7217 18.6699L13.3967 17.4849L16.0166 18.6666C16.625 18.9416 17.3316 18.8265 17.8232 18.3798C18.3148 17.9316 18.4949 17.2365 18.2799 16.6082L17.5416 14.4515L19.3816 12.9615C19.9316 12.5181 20.14 11.7748 19.9033 11.1097C19.6684 10.4447 19.04 9.99976 18.3334 9.99976H16.0301L14.825 7.58804C14.2584 6.45796 12.4084 6.45796 11.8416 7.58804L10.6367 9.99995H8.33339C7.61015 9.99995 6.97167 10.465 6.74843 11.1517C6.52499 11.8382 6.76991 12.5916 7.35331 13.015ZM13.1584 12.4117L13.3334 12.0599L13.5084 12.4117C13.65 12.6966 13.8668 12.9267 14.1283 13.0867C13.9633 13.3884 13.8933 13.7349 13.9334 14.08C13.7617 14.0234 13.5801 13.9933 13.4017 13.9933C13.2301 13.9933 13.0584 14.0201 12.8918 14.0734C12.9584 13.6917 12.8885 13.3017 12.7051 12.9716C12.89 12.8216 13.0467 12.6333 13.1584 12.4117Z" fill="#D5B772"/>
<path d="M95 45C92.8301 45 90.9982 46.3967 90.3084 48.3334H68.3334C67.4117 48.3334 66.6668 49.0801 66.6668 50C66.6668 50.9199 67.4117 51.6666 68.3334 51.6666H90.3084C90.9984 53.6033 92.8301 55 95 55C97.7566 55 100 52.7566 100 50C100 47.2434 97.7566 45 95 45ZM95 51.6666C94.0801 51.6666 93.3334 50.9184 93.3334 50C93.3334 49.0816 94.0801 48.3334 95 48.3334C95.9199 48.3334 96.6666 49.0816 96.6666 50C96.6666 50.9184 95.9199 51.6666 95 51.6666Z" fill="#D5B772"/>
<path d="M92.6467 87.2651L90.74 85.8802L91.5234 83.6935C91.7484 83.0651 91.5768 82.3634 91.0885 81.9101C90.6002 81.4567 89.8867 81.3368 89.2785 81.6085L86.6035 82.7935L83.9836 81.6118C83.3785 81.3419 82.6686 81.4519 82.177 81.8985C81.6854 82.347 81.5053 83.0419 81.7203 83.6702L82.4586 85.8286L80.617 87.3187C80.0688 87.7636 79.8604 88.5054 80.0971 89.1704C80.332 89.8354 80.9604 90.2804 81.667 90.2804H83.9703L85.1754 92.6921C85.4588 93.2571 86.0354 93.6138 86.667 93.6138C87.2986 93.6138 87.8754 93.2571 88.1586 92.6921L89.3637 90.2804H91.667C92.3902 90.2804 93.0287 89.8153 93.252 89.1286C93.475 88.4417 93.2301 87.6901 92.6467 87.2651ZM86.8416 87.8684L86.6666 88.22L86.4916 87.8684C86.35 87.5835 86.1332 87.3534 85.8699 87.1917C86.0365 86.8917 86.1067 86.5435 86.0666 86.1983C86.4049 86.3116 86.7699 86.3134 87.1082 86.2067C87.0416 86.5884 87.1115 86.9784 87.2965 87.3085C87.11 87.4567 86.9533 87.6468 86.8416 87.8684Z" fill="#D5B772"/>
<path d="M60.2217 60.7833C60.5783 60.3216 60.9316 59.4966 60.59 58.1951C60.2434 56.8751 59.2617 52.9183 58.79 51.0117L63.9267 47.025C64.8551 46.3033 65.2617 45.0066 64.9135 43.8767C64.5851 42.8068 63.6701 42.0951 62.5602 42.0234C61.7869 41.9601 57.7084 41.5966 55.7767 41.4251L52.6385 33.6218C52.1551 32.4167 51.1535 31.6667 50.0234 31.6667C48.8301 31.6667 47.8135 32.4984 47.4635 33.6867C47.1719 34.4767 45.4301 39.3 44.6617 41.4234L37.4217 42.0367C36.3017 42.1316 35.415 42.84 35.11 43.8851C34.7867 44.9884 35.185 46.2384 36.0766 46.9218C36.5449 47.2818 39.9498 49.7785 41.6365 51.0134L39.5715 58.1068C39.1266 59.4152 39.4414 60.2619 39.7848 60.7417C40.5781 61.8468 42.398 61.9501 43.7014 61.0433C44.3664 60.58 48.1848 57.8517 50.0098 56.55C51.8248 57.8466 55.6131 60.555 56.3098 61.0382C56.9064 61.4548 57.6264 61.6933 58.2898 61.6933C59.0699 61.6933 59.775 61.3617 60.2217 60.7833ZM55.2949 50.7583C55.2949 50.7583 56.2766 54.7417 56.9416 57.4017C54.8133 55.8867 50.9799 53.1451 50.9799 53.1451C50.6898 52.9367 50.3498 52.8333 50.01 52.8333C49.6701 52.8333 49.3316 52.9367 49.04 53.1451C49.04 53.1451 45.485 55.6867 43.2934 57.2468L45.165 50.8251C45.3617 50.1519 45.1133 49.4285 44.5484 49.0134C44.5484 49.0134 41.2719 46.6167 39.3734 45.2167L46.0068 44.655C46.6551 44.6 47.2119 44.1734 47.4336 43.5617C47.4336 43.5617 49.1486 38.8134 50.0887 36.215L53.0654 43.6166C53.2988 44.1982 53.8404 44.5999 54.4637 44.6548C54.4637 44.6548 58.482 45.0132 60.8187 45.2181L55.8904 49.0414C55.3717 49.4449 55.1367 50.1183 55.2949 50.7583Z" fill="#D5B772"/>
<path d="M21.6666 60.8335C21.6666 62.2118 22.7883 63.3335 24.1666 63.3335C25.5449 63.3335 26.6666 62.2118 26.6666 60.8335C26.6666 59.4552 25.5449 58.3335 24.1666 58.3335C22.7883 58.3335 21.6666 59.4552 21.6666 60.8335ZM25 60.8335C25 61.2935 24.625 61.6669 24.1666 61.6669C23.7082 61.6669 23.3332 61.2937 23.3332 60.8335C23.3332 60.3733 23.7082 60.0001 24.1666 60.0001C24.625 60.0001 25 60.3733 25 60.8335Z" fill="#D5B772"/>
<path d="M9.6916 51.6666H31.6666C32.5883 51.6666 33.3332 50.9199 33.3332 50C33.3332 49.0801 32.5883 48.3334 31.6666 48.3334H9.6916C9.00176 46.3967 7.16992 45 5 45C2.24336 45 0 47.2434 0 50C0 52.7566 2.24336 55 5 55C7.16992 55 9.00176 53.6033 9.6916 51.6666ZM5 51.6666C4.08008 51.6666 3.3334 50.9184 3.3334 50C3.3334 49.0816 4.08008 48.3334 5 48.3334C5.91992 48.3334 6.6666 49.0816 6.6666 50C6.6666 50.9184 5.91992 51.6666 5 51.6666Z" fill="#D5B772"/>
<path d="M18.24 82.3166C17.7951 81.825 17.0933 81.6449 16.4701 81.86L14.3135 82.5982L12.8219 80.7582C12.3769 80.21 11.6351 79.9965 10.9701 80.2365C10.3051 80.4715 9.86013 81.1016 9.86013 81.8064V84.1098L7.44841 85.3148C6.88337 85.5982 6.52673 86.1748 6.52673 86.8064C6.52673 87.4381 6.88337 88.0148 7.44841 88.298L9.86013 89.5031V91.8064C9.86013 92.5281 10.3252 93.1682 11.0119 93.3914C11.1818 93.4465 11.3552 93.4731 11.5269 93.4731C12.0486 93.4731 12.5552 93.2264 12.8752 92.7863L14.2601 90.8797L16.4469 91.6631C17.0752 91.8898 17.7769 91.7197 18.2302 91.2281C18.6836 90.7398 18.8019 90.0281 18.532 89.4182L17.347 86.7432L18.5287 84.1232C18.8 83.5166 18.6883 82.8066 18.24 82.3166ZM13.9334 87.2482C13.5551 87.1799 13.1617 87.25 12.8301 87.435C12.6818 87.25 12.4933 87.0934 12.2717 86.9816L11.9199 86.8066L12.2717 86.6316C12.5551 86.4883 12.7883 86.2717 12.9484 86.0117C13.2484 86.1768 13.5867 86.2467 13.9418 86.2066C13.8283 86.5434 13.825 86.91 13.9334 87.2482Z" fill="#D5B772"/>
<path d="M39.1666 73.3335C37.7883 73.3335 36.6666 74.4552 36.6666 75.8335C36.6666 77.2118 37.7883 78.3335 39.1666 78.3335C40.5449 78.3335 41.6666 77.2118 41.6666 75.8335C41.6666 74.4552 40.5449 73.3335 39.1666 73.3335ZM39.1666 76.6667C38.7082 76.6667 38.3332 76.2935 38.3332 75.8333C38.3332 75.3733 38.7082 74.9999 39.1666 74.9999C39.625 74.9999 40 75.3731 40 75.8333C40 76.2935 39.625 76.6667 39.1666 76.6667Z" fill="#D5B772"/>
<path d="M51.6666 90.3067V65.0001C51.6666 64.0802 50.9217 63.3335 50 63.3335C49.0783 63.3335 48.3334 64.0802 48.3334 65.0001V90.3067C46.3984 90.9983 45 92.83 45 95.0001C45 97.7567 47.2434 100 50 100C52.7566 100 55 97.7567 55 95.0001C55 92.8302 53.6018 90.9983 51.6666 90.3067ZM50 96.6667C49.0801 96.6667 48.3334 95.9185 48.3334 95.0001C48.3334 94.0817 49.0801 93.3335 50 93.3335C50.9199 93.3335 51.6666 94.0817 51.6666 95.0001C51.6666 95.9185 50.9199 96.6667 50 96.6667Z" fill="#D5B772"/>
<path d="M36.1783 63.8216C35.5265 63.1698 34.4732 63.1698 33.8217 63.8216L20.4883 77.155C19.8365 77.8065 19.8365 78.8601 20.4883 79.5116C20.8133 79.8366 21.24 79.9999 21.6666 79.9999C22.0933 79.9999 22.5199 79.8366 22.8449 79.5116L36.1783 66.1782C36.8301 65.5267 36.8301 64.4731 36.1783 63.8216Z" fill="#D5B772"/>
</g>
<defs>
<clipPath id="clip0_122_9">
<rect width="100" height="100" fill="white"/>
</clipPath>
</defs>
</svg>
