<svg width="30" height="31" viewBox="0 0 30 31" fill="none" xmlns="http://www.w3.org/2000/svg">
<g clip-path="url(#clip0_52_2148)">
<path fill-rule="evenodd" clip-rule="evenodd" d="M24.7216 6.06068C26.0815 5.48809 27.5394 6.638 27.2992 8.09386L24.4631 25.2898C24.1896 26.9478 22.3686 27.8991 20.8475 27.0729C19.5746 26.3815 17.6861 25.3174 15.9841 24.2053C15.1342 23.6499 12.5319 21.8691 12.8517 20.6015C13.1252 19.5176 17.5001 15.4453 20.0001 13.0234C20.9821 12.072 20.5349 11.5225 19.3751 12.3984C16.4981 14.5713 11.8791 17.8749 10.3517 18.8046C9.00403 19.6249 8.30038 19.7649 7.46107 19.6249C5.92841 19.3695 4.50745 18.974 3.34734 18.4931C1.77938 17.8431 1.85576 15.6884 3.34628 15.0609L24.7216 6.06068Z" fill="#DCB87F"/>
</g>
<defs>
<clipPath id="clip0_52_2148">
<rect width="30" height="30" fill="white" transform="translate(0 0.523438)"/>
</clipPath>
</defs>
</svg>
