<svg width="512" height="512" viewBox="0 0 512 512" fill="none" xmlns="http://www.w3.org/2000/svg">
<rect width="512" height="512" rx="130" fill="#FAF6EF"/>
<path d="M390.856 386.813H331.686C330.401 386.813 329.484 387.547 328.934 389.014L312.421 437.727C309.852 444.882 308.568 451.029 308.568 456.166C308.568 458.735 309.577 460.753 311.595 462.221C313.613 463.505 315.907 464.147 318.476 464.147H320.952C323.338 464.147 324.53 464.697 324.53 465.798C324.53 467.266 322.879 468 319.576 468C317.008 468 313.063 467.816 307.742 467.45C302.605 467.266 299.669 467.174 298.936 467.174C298.752 467.174 294.807 467.266 287.101 467.45C279.396 467.816 272.974 468 267.837 468C264.351 468 262.608 467.266 262.608 465.798C262.608 464.697 263.892 464.147 266.461 464.147C267.928 464.147 270.13 463.964 273.066 463.597C278.937 462.863 283.524 460.386 286.826 456.166C290.129 451.763 293.248 445.616 296.183 437.727L358.656 266.821C361.225 259.665 363.243 256.087 364.711 256.087C366.179 256.087 368.197 259.39 370.766 265.995C371.5 267.83 376.086 279.939 384.526 302.323C393.15 324.707 402.415 348.834 412.323 374.703C422.414 400.573 429.936 419.655 434.89 431.947C442.229 449.928 450.118 460.111 458.558 462.496C461.861 463.597 465.438 464.147 469.291 464.147C471.309 464.147 472.319 464.697 472.319 465.798C472.319 467.266 470.484 468 466.814 468C450.669 468 436.266 467.816 423.606 467.45C418.102 467.083 415.35 466.44 415.35 465.523C415.35 464.606 415.992 463.964 417.276 463.597C419.845 462.679 420.395 460.202 418.928 456.166L393.333 388.464C392.783 387.363 391.957 386.813 390.856 386.813ZM334.713 376.905H387.278C388.379 376.905 388.746 376.263 388.379 374.979L362.234 300.672C360.95 296.452 359.574 296.452 358.106 300.672L333.887 374.979C333.337 376.263 333.612 376.905 334.713 376.905Z" fill="#B89365"/>
<path d="M167.248 175.725H108.078C106.794 175.725 105.876 176.459 105.326 177.927L88.8132 226.639C86.2446 233.795 84.9603 239.941 84.9603 245.078C84.9603 247.647 85.9694 249.665 87.9876 251.133C90.0058 252.417 92.2992 253.06 94.8679 253.06H97.3448C99.7299 253.06 100.923 253.61 100.923 254.711C100.923 256.179 99.2712 256.913 95.9687 256.913C93.4001 256.913 89.4554 256.729 84.1346 256.362C78.9974 256.179 76.0618 256.087 75.3279 256.087C75.1444 256.087 71.1997 256.179 63.4938 256.362C55.7879 256.729 49.3663 256.913 44.229 256.913C40.743 256.913 39 256.179 39 254.711C39 253.61 40.2843 253.06 42.853 253.06C44.3207 253.06 46.5224 252.876 49.458 252.509C55.3292 251.775 59.916 249.298 63.2186 245.078C66.5211 240.675 69.6402 234.529 72.5758 226.639L135.049 55.7332C137.617 48.5777 139.636 45 141.103 45C142.571 45 144.589 48.3025 147.158 54.9076C147.892 56.7423 152.479 68.8516 160.919 91.2355C169.542 113.619 178.807 137.746 188.715 163.616C198.806 189.486 206.328 208.567 211.282 220.86C218.621 238.84 226.511 249.023 234.95 251.408C238.253 252.509 241.831 253.06 245.684 253.06C247.702 253.06 248.711 253.61 248.711 254.711C248.711 256.179 246.876 256.913 243.207 256.913C227.061 256.913 212.658 256.729 199.999 256.362C194.494 255.995 191.742 255.353 191.742 254.436C191.742 253.518 192.384 252.876 193.669 252.509C196.237 251.592 196.788 249.115 195.32 245.078L169.725 177.377C169.175 176.276 168.349 175.725 167.248 175.725ZM111.105 165.818H163.671C164.771 165.818 165.138 165.176 164.771 163.891L138.626 89.5842C137.342 85.3643 135.966 85.3643 134.498 89.5842L110.28 163.891C109.729 165.176 110.004 165.818 111.105 165.818Z" fill="#B89365"/>
<path d="M233.161 361.768C221.786 361.768 211.603 359.75 202.613 355.714C193.623 351.677 186.559 346.54 181.422 340.302C176.468 333.88 172.707 327.367 170.138 320.762C167.569 313.973 166.285 307.368 166.285 300.947C166.285 273.059 180.137 250.95 207.842 234.621C199.219 222.511 194.907 209.852 194.907 196.642C194.907 184.532 200.411 173.065 211.42 162.24C222.611 151.415 236.831 146.003 254.077 146.003C266.92 146.003 277.195 147.837 284.901 151.507C287.653 152.791 289.304 153.984 289.855 155.085C290.589 156.002 290.956 157.562 290.956 159.763C290.956 172.423 290.405 182.331 289.304 189.486C288.57 193.889 287.561 196.091 286.277 196.091C285.176 196.091 284.626 194.348 284.626 190.862C284.626 181.138 281.782 173.34 276.094 167.469C268.572 159.396 259.398 155.36 248.573 155.36C239.216 155.36 231.051 158.387 224.079 164.442C217.107 170.496 213.621 179.487 213.621 191.413C213.621 201.32 216.832 211.228 223.254 221.135C229.675 230.859 240.959 244.437 257.105 261.867C261.508 266.637 270.04 275.077 282.699 287.186C295.542 299.112 304.349 307.093 309.119 311.129C313.156 305.625 316.458 298.653 319.027 290.213C321.779 281.774 323.155 273.517 323.155 265.444C323.155 259.94 321.412 255.445 317.926 251.959C316.091 250.124 312.33 248.748 306.643 247.831C302.973 247.097 301.138 246.363 301.138 245.629C301.138 244.345 302.606 243.703 305.542 243.703C315.633 243.703 326.641 244.345 338.567 245.629C341.87 245.996 343.521 247.831 343.521 251.133C343.521 261.408 340.677 272.692 334.989 284.984C329.485 297.094 323.247 307.46 316.275 316.083C329.669 327.459 342.328 336.541 354.254 343.329C366.363 350.485 377.097 354.062 386.454 354.062C389.389 354.062 390.857 354.704 390.857 355.989C390.857 357.273 389.573 357.915 387.004 357.915H351.227C343.521 357.365 336.182 355.438 329.21 352.136C322.238 348.833 312.972 342.595 301.414 333.421C282.516 352.319 259.765 361.768 233.161 361.768ZM243.069 346.632C265.269 346.632 282.424 340.393 294.533 327.917C287.561 322.046 278.663 313.881 267.838 303.423C257.013 292.965 249.399 285.351 244.995 280.581C228.483 262.784 217.474 249.849 211.97 241.776C196.558 251.867 188.852 267.279 188.852 288.012C188.852 305.075 193.989 319.11 204.264 330.119C214.539 341.127 227.474 346.632 243.069 346.632Z" fill="#8C6A40"/>
</svg>
