<svg width="40" height="40" viewBox="0 0 40 40" fill="none" xmlns="http://www.w3.org/2000/svg">
<path d="M32.4802 31.5529H27.0181C26.8996 31.5529 26.8149 31.6206 26.7641 31.7561L25.2398 36.2528C25.0027 36.9133 24.8841 37.4807 24.8841 37.9549C24.8841 38.192 24.9772 38.3783 25.1636 38.5138C25.3499 38.6324 25.5616 38.6916 25.7987 38.6916H26.0273C26.2475 38.6916 26.3576 38.7424 26.3576 38.8441C26.3576 38.9796 26.2051 39.0473 25.9003 39.0473C25.6632 39.0473 25.299 39.0304 24.8079 38.9965C24.3337 38.9796 24.0627 38.9711 23.9949 38.9711C23.978 38.9711 23.6139 38.9796 22.9025 38.9965C22.1912 39.0304 21.5984 39.0473 21.1242 39.0473C20.8024 39.0473 20.6415 38.9796 20.6415 38.8441C20.6415 38.7424 20.76 38.6916 20.9971 38.6916C21.1326 38.6916 21.3359 38.6747 21.6069 38.6408C22.1488 38.5731 22.5723 38.3444 22.8771 37.9549C23.182 37.5484 23.4699 36.981 23.7409 36.2528L29.5078 20.4763C29.7449 19.8158 29.9312 19.4855 30.0667 19.4855C30.2022 19.4855 30.3885 19.7904 30.6256 20.4001C30.6933 20.5695 31.1168 21.6873 31.8958 23.7536C32.6919 25.8198 33.5472 28.047 34.4617 30.435C35.3933 32.8231 36.0877 34.5845 36.5449 35.7193C37.2224 37.379 37.9507 38.319 38.7298 38.5392C39.0346 38.6408 39.3649 38.6916 39.7206 38.6916C39.9069 38.6916 40 38.7424 40 38.8441C40 38.9796 39.8306 39.0473 39.4919 39.0473C38.0015 39.0473 36.672 39.0304 35.5033 38.9965C34.9952 38.9626 34.7412 38.9033 34.7412 38.8187C34.7412 38.734 34.8005 38.6747 34.919 38.6408C35.1561 38.5561 35.207 38.3275 35.0715 37.9549L32.7088 31.7053C32.658 31.6037 32.5818 31.5529 32.4802 31.5529ZM27.2976 30.6383H32.1499C32.2515 30.6383 32.2854 30.579 32.2515 30.4604L29.8381 23.6011C29.7195 23.2116 29.5925 23.2116 29.457 23.6011L27.2213 30.4604C27.1705 30.579 27.1959 30.6383 27.2976 30.6383Z" fill="#B89365"/>
<path d="M11.8387 12.0673H6.37663C6.25807 12.0673 6.17339 12.1351 6.12258 12.2706L4.59829 16.7672C4.36117 17.4278 4.24262 17.9951 4.24262 18.4694C4.24262 18.7065 4.33577 18.8928 4.52207 19.0283C4.70837 19.1468 4.92008 19.2061 5.15719 19.2061H5.38584C5.60601 19.2061 5.7161 19.2569 5.7161 19.3585C5.7161 19.494 5.56367 19.5618 5.25881 19.5618C5.0217 19.5618 4.65756 19.5448 4.1664 19.511C3.69218 19.494 3.42119 19.4855 3.35345 19.4855C3.33651 19.4855 2.97237 19.494 2.26104 19.511C1.5497 19.5448 0.956918 19.5618 0.482693 19.5618C0.160898 19.5618 0 19.494 0 19.3585C0 19.2569 0.118556 19.2061 0.355668 19.2061C0.491161 19.2061 0.6944 19.1892 0.965386 19.1553C1.50736 19.0875 1.93077 18.8589 2.23563 18.4694C2.54049 18.0629 2.82841 17.4955 3.0994 16.7672L8.86631 0.99079C9.10342 0.330263 9.28972 0 9.42521 0C9.56071 0 9.74701 0.304859 9.98412 0.914576C10.0519 1.08394 10.4753 2.20176 11.2544 4.26802C12.0504 6.33429 12.9057 8.56145 13.8203 10.9495C14.7518 13.3376 15.4462 15.099 15.9035 16.2337C16.5809 17.8935 17.3092 18.8335 18.0883 19.0537C18.3931 19.1553 18.7234 19.2061 19.0791 19.2061C19.2654 19.2061 19.3585 19.2569 19.3585 19.3585C19.3585 19.494 19.1892 19.5618 18.8504 19.5618C17.36 19.5618 16.0305 19.5448 14.8619 19.511C14.3538 19.4771 14.0997 19.4178 14.0997 19.3331C14.0997 19.2484 14.159 19.1892 14.2775 19.1553C14.5147 19.0706 14.5655 18.842 14.43 18.4694L12.0673 12.2198C12.0165 12.1181 11.9403 12.0673 11.8387 12.0673ZM6.65608 11.1527H11.5084C11.61 11.1527 11.6439 11.0935 11.61 10.9749L9.19657 4.11559C9.07801 3.72605 8.95099 3.72605 8.8155 4.11559L6.57987 10.9749C6.52906 11.0935 6.55446 11.1527 6.65608 11.1527Z" fill="#B89365"/>
<path d="M17.9231 29.241C16.8731 29.241 15.9331 29.0547 15.1032 28.6821C14.2733 28.3095 13.6212 27.8353 13.147 27.2594C12.6897 26.6666 12.3425 26.0654 12.1054 25.4557C11.8683 24.829 11.7498 24.2193 11.7498 23.6265C11.7498 21.0522 13.0285 19.0113 15.5859 17.504C14.7899 16.3861 14.3919 15.2175 14.3919 13.9981C14.3919 12.8803 14.9 11.8217 15.9162 10.8225C16.9493 9.82321 18.2619 9.32358 19.8539 9.32358C21.0395 9.32358 21.9879 9.49294 22.6993 9.83168C22.9533 9.95023 23.1057 10.0603 23.1566 10.1619C23.2243 10.2466 23.2582 10.3906 23.2582 10.5938C23.2582 11.7624 23.2074 12.677 23.1057 13.3376C23.038 13.744 22.9448 13.9473 22.8263 13.9473C22.7247 13.9473 22.6739 13.7864 22.6739 13.4646C22.6739 12.5669 22.4113 11.8471 21.8863 11.3052C21.1919 10.5599 20.3451 10.1873 19.3458 10.1873C18.4821 10.1873 17.7284 10.4668 17.0848 11.0257C16.4412 11.5846 16.1194 12.4145 16.1194 13.5154C16.1194 14.43 16.4158 15.3445 17.0086 16.2591C17.6013 17.1568 18.643 18.4101 20.1334 20.019C20.5398 20.4594 21.3274 21.2385 22.496 22.3563C23.6816 23.4572 24.4945 24.1939 24.9349 24.5665C25.3075 24.0584 25.6124 23.4148 25.8495 22.6357C26.1035 21.8567 26.2305 21.0945 26.2305 20.3493C26.2305 19.8412 26.0696 19.4263 25.7478 19.1045C25.5785 18.9351 25.2313 18.8081 24.7062 18.7234C24.3675 18.6556 24.1982 18.5879 24.1982 18.5201C24.1982 18.4016 24.3336 18.3423 24.6046 18.3423C25.5361 18.3423 26.5523 18.4016 27.6532 18.5201C27.9581 18.554 28.1105 18.7234 28.1105 19.0282C28.1105 19.9767 27.848 21.0183 27.323 22.153C26.8149 23.2709 26.239 24.2278 25.5954 25.0238C26.8318 26.0739 28.0004 26.9122 29.1013 27.5389C30.2191 28.1994 31.2099 28.5297 32.0737 28.5297C32.3447 28.5297 32.4802 28.589 32.4802 28.7075C32.4802 28.8261 32.3616 28.8853 32.1245 28.8853H28.8218C28.1105 28.8345 27.433 28.6567 26.7895 28.3518C26.1459 28.047 25.2906 27.4711 24.2236 26.6243C22.4791 28.3688 20.379 29.241 17.9231 29.241ZM18.8377 27.8437C20.887 27.8437 22.4706 27.2679 23.5884 26.1162C22.9448 25.5742 22.1234 24.8206 21.1242 23.8552C20.1249 22.8898 19.422 22.1869 19.0156 21.7466C17.4913 20.1037 16.4751 18.9097 15.967 18.1645C14.5443 19.096 13.833 20.5187 13.833 22.4325C13.833 24.0076 14.3072 25.3033 15.2556 26.3194C16.2041 27.3356 17.3981 27.8437 18.8377 27.8437Z" fill="#8C6A40"/>
</svg>
