<?xml version="1.0" standalone="no"?>
<!DOCTYPE svg PUBLIC "-//W3C//DTD SVG 20010904//EN"
 "http://www.w3.org/TR/2001/REC-SVG-20010904/DTD/svg10.dtd">
<svg version="1.0" xmlns="http://www.w3.org/2000/svg"
 width="700.000000pt" height="700.000000pt" viewBox="0 0 700.000000 700.000000"
 preserveAspectRatio="xMidYMid meet">
<metadata>
Created by potrace 1.14, written by Peter Selinger 2001-2017
</metadata>
<g transform="translate(0.000000,700.000000) scale(0.100000,-0.100000)"
fill="#000000" stroke="none">
<path d="M2537 6895 c-1 -2 -42 -5 -92 -9 -49 -3 -99 -8 -110 -10 -11 -2 -42
-7 -68 -10 -483 -71 -990 -308 -1365 -641 -35 -30 -217 -215 -252 -255 -154
-176 -326 -449 -425 -675 -52 -118 -125 -328 -139 -400 -3 -11 -13 -58 -24
-105 -11 -47 -23 -105 -27 -130 -3 -25 -8 -56 -10 -70 -27 -176 -27 -606 0
-741 6 -30 12 -61 20 -119 10 -69 70 -294 105 -395 96 -274 260 -567 453 -805
104 -128 305 -327 416 -410 18 -14 46 -36 62 -49 l30 -23 -6 33 c-3 19 -10 53
-15 76 -14 59 -38 223 -47 318 -15 154 -8 610 11 710 18 94 16 113 -11 162
-58 99 -125 275 -162 418 -141 563 -14 1156 347 1610 64 81 219 237 277 280
22 17 42 33 45 36 3 4 50 37 105 74 107 71 280 159 385 195 36 12 72 25 80 28
33 12 156 43 187 47 12 2 34 6 50 9 15 3 45 8 66 11 20 3 54 8 75 11 41 6 325
7 357 0 11 -2 47 -7 80 -11 169 -19 366 -81 550 -170 307 -150 543 -356 736
-641 47 -71 146 -254 167 -311 106 -288 136 -442 137 -698 0 -191 -7 -267 -37
-395 -5 -25 -12 -58 -15 -74 -9 -52 -84 -259 -126 -346 -178 -371 -492 -688
-852 -860 -135 -64 -156 -73 -260 -105 -49 -16 -91 -29 -93 -30 -4 -3 42 -123
72 -185 57 -120 133 -226 232 -325 94 -94 209 -181 232 -177 32 6 337 162 419
215 85 54 92 58 204 142 351 261 663 663 837 1075 82 193 153 437 178 607 3
26 8 57 10 68 2 11 7 49 10 85 3 36 8 76 10 90 6 35 5 342 -1 415 -22 268
-103 605 -196 812 -57 128 -125 263 -172 341 -47 80 -192 290 -207 302 -4 3
-31 34 -61 70 -94 114 -269 282 -379 364 -30 22 -57 43 -60 46 -33 36 -251
170 -380 234 -52 27 -102 51 -111 56 -60 31 -277 111 -349 130 -19 5 -71 18
-115 29 -118 31 -261 55 -395 67 -62 6 -377 13 -383 9z"/>
<path d="M3310 5260 c-8 -5 -85 -42 -170 -84 -191 -93 -326 -179 -523 -335
-255 -201 -538 -560 -692 -876 -89 -182 -177 -421 -199 -539 -2 -12 -11 -50
-19 -86 -9 -36 -18 -85 -22 -110 -4 -25 -8 -52 -10 -60 -2 -8 -6 -49 -10 -90
-4 -41 -9 -86 -11 -100 -5 -33 -5 -352 1 -415 2 -27 7 -68 9 -90 3 -22 8 -62
12 -90 3 -27 8 -52 9 -55 2 -3 6 -26 10 -50 12 -84 47 -215 90 -345 191 -573
558 -1051 1070 -1392 358 -239 809 -395 1240 -430 161 -13 496 -6 579 12 11 2
39 7 61 10 22 4 49 8 60 10 157 24 364 85 560 164 11 4 86 41 168 81 500 247
919 659 1174 1155 161 311 264 659 291 985 21 249 3 567 -44 795 -41 196 -143
498 -212 625 -5 8 -26 49 -47 90 -22 41 -42 77 -45 80 -3 3 -14 21 -24 40 -64
118 -243 350 -374 484 -144 147 -359 326 -349 289 3 -10 9 -38 13 -63 4 -25 8
-47 9 -50 1 -3 5 -27 10 -55 4 -27 9 -57 10 -65 2 -9 6 -43 10 -75 4 -33 9
-71 12 -85 9 -46 11 -504 2 -595 -9 -94 -17 -162 -25 -207 -3 -19 13 -64 54
-150 91 -190 131 -316 167 -523 23 -138 24 -440 1 -560 -2 -11 -11 -59 -20
-106 -37 -198 -149 -465 -272 -646 -195 -288 -451 -509 -759 -653 -74 -34
-210 -87 -245 -95 -8 -2 -42 -11 -75 -19 -63 -17 -194 -41 -282 -51 -98 -12
-352 -6 -428 9 -11 2 -45 7 -75 12 -30 4 -57 8 -60 9 -3 1 -18 5 -35 9 -104
27 -232 69 -305 101 -507 218 -878 629 -1049 1162 -17 52 -27 97 -56 243 -25
122 -25 549 -1 588 2 4 7 32 11 62 22 173 136 458 262 655 99 153 285 357 418
455 33 25 62 48 63 53 2 4 10 7 17 7 7 0 15 4 17 8 5 14 158 103 253 148 98
45 256 104 283 104 39 1 43 14 21 75 -76 217 -227 422 -415 567 -75 57 -95 68
-114 58z"/>
</g>
</svg>
