<?xml version="1.0" standalone="no"?>
<!DOCTYPE svg PUBLIC "-//W3C//DTD SVG 20010904//EN"
 "http://www.w3.org/TR/2001/REC-SVG-20010904/DTD/svg10.dtd">
<svg version="1.0" xmlns="http://www.w3.org/2000/svg"
 width="512.000000pt" height="512.000000pt" viewBox="0 0 512.000000 512.000000"
 preserveAspectRatio="xMidYMid meet">
<metadata>
Created by potrace 1.14, written by Peter Selinger 2001-2017
</metadata>
<g transform="translate(0.000000,512.000000) scale(0.100000,-0.100000)"
fill="#000000" stroke="none">
<path d="M1620 4453 c-207 -19 -407 -69 -555 -139 -310 -146 -499 -376 -561
-684 -19 -96 -11 -344 14 -437 23 -85 70 -188 109 -240 79 -108 224 -224 368
-295 177 -88 281 -122 747 -239 536 -134 723 -212 866 -359 198 -203 178 -553
-42 -763 -174 -166 -429 -237 -836 -232 -188 3 -226 7 -434 50 -205 42 -561
220 -700 350 -21 20 -42 33 -46 28 -4 -4 -40 -71 -80 -147 l-72 -140 34 -30
c139 -125 291 -215 503 -299 80 -31 237 -78 305 -91 14 -3 48 -9 77 -15 52
-10 72 -13 208 -30 73 -10 458 -7 535 3 79 11 112 16 134 21 12 3 33 7 49 10
60 11 79 16 168 45 328 108 587 350 669 628 7 23 16 42 19 42 3 0 12 -15 20
-33 8 -17 27 -60 43 -95 15 -34 28 -64 28 -67 0 -2 14 -35 31 -72 64 -138 78
-170 124 -278 26 -60 63 -143 81 -183 19 -41 34 -78 34 -83 0 -5 54 -9 123 -9
l123 0 114 258 c62 141 126 284 141 317 15 33 69 155 119 270 51 116 105 238
121 273 16 35 29 65 29 67 0 2 18 42 40 89 22 47 40 88 40 90 0 3 15 37 34 78
18 40 48 107 66 148 18 41 40 93 50 115 10 22 37 83 60 135 23 52 50 113 60
135 11 22 46 102 79 178 l60 137 -32 1 c-101 2 -209 1 -212 -2 -2 -2 -58 -128
-125 -279 -66 -151 -132 -299 -146 -328 -13 -29 -24 -55 -24 -57 0 -3 -13 -33
-29 -67 -16 -35 -75 -166 -131 -293 -56 -126 -108 -243 -115 -260 -8 -16 -81
-183 -164 -369 -144 -327 -150 -338 -162 -310 -7 16 -22 52 -35 79 -69 155
-173 395 -185 428 -7 20 -17 37 -21 37 -4 0 -8 6 -8 14 0 8 -18 54 -40 101
-22 47 -40 88 -40 91 0 2 -16 38 -35 80 -19 41 -35 78 -35 80 0 3 -11 29 -24
57 -14 29 -59 131 -101 227 -43 96 -86 194 -96 218 -42 94 -58 130 -89 202
-18 41 -44 100 -57 130 -60 136 -79 180 -87 203 -5 17 -17 18 -191 18 -89 0
-85 2 -70 -28 7 -16 22 -48 33 -73 58 -130 154 -347 159 -357 3 -7 -39 8 -93
33 -96 45 -297 117 -419 149 -33 9 -182 47 -332 85 -395 101 -567 161 -698
246 -71 45 -146 122 -182 186 -60 105 -77 295 -39 433 52 184 206 335 425 415
161 59 264 74 501 75 190 0 251 -6 409 -41 197 -44 396 -122 548 -215 36 -22
66 -39 68 -37 5 6 45 97 45 103 0 3 10 27 21 53 47 102 60 136 55 147 -6 18
-151 100 -253 144 -115 50 -199 77 -371 120 -173 43 -307 59 -511 58 -97 -1
-192 -2 -211 -4z"/>
</g>
</svg>
