<?xml version="1.0" standalone="no"?>
<!DOCTYPE svg PUBLIC "-//W3C//DTD SVG 20010904//EN"
 "http://www.w3.org/TR/2001/REC-SVG-20010904/DTD/svg10.dtd">
<svg version="1.0" xmlns="http://www.w3.org/2000/svg"
 width="700.000000pt" height="700.000000pt" viewBox="0 0 700.000000 700.000000"
 preserveAspectRatio="xMidYMid meet">
<metadata>
Created by potrace 1.14, written by Peter Selinger 2001-2017
</metadata>
<g transform="translate(0.000000,700.000000) scale(0.100000,-0.100000)"
fill="#000000" stroke="none">
<path d="M1912 6377 c-17 -22 -44 -80 -72 -156 -15 -42 -73 -200 -128 -351
-55 -151 -142 -387 -193 -525 -50 -137 -109 -297 -130 -355 -86 -240 -121
-335 -192 -530 -254 -694 -271 -735 -344 -819 -54 -64 -106 -86 -229 -97 -75
-7 -101 -19 -84 -39 8 -10 100 -12 418 -10 224 1 410 3 415 4 4 0 7 8 7 16 0
16 -17 21 -97 29 -132 13 -150 98 -74 338 92 287 234 694 247 704 14 11 847
15 857 4 4 -5 61 -155 227 -595 39 -104 83 -220 97 -256 l25 -67 -42 -38
c-221 -199 -335 -432 -344 -701 -6 -190 43 -349 157 -518 153 -226 414 -354
727 -358 176 -2 306 16 450 63 146 48 322 150 434 252 32 29 64 56 70 59 6 4
58 -29 116 -72 58 -43 132 -94 165 -114 33 -19 66 -39 73 -43 11 -8 -34 -138
-315 -902 -137 -375 -170 -452 -227 -529 -52 -71 -129 -105 -255 -115 -69 -5
-93 -18 -73 -38 17 -17 818 -16 835 1 19 19 -6 32 -71 36 -98 5 -142 43 -142
121 0 51 26 170 56 255 15 41 69 200 120 354 52 154 100 290 106 303 l11 22
428 0 427 0 17 -43 c39 -95 328 -865 341 -906 17 -54 10 -85 -23 -100 -31 -14
-26 -32 13 -43 51 -15 709 -19 727 -5 28 21 4 38 -59 43 -162 11 -259 87 -366
284 -48 88 -260 620 -552 1385 -70 182 -137 357 -150 390 -13 33 -40 103 -60
155 -20 52 -60 158 -90 235 -29 77 -68 181 -86 230 -44 118 -78 169 -105 159
-24 -9 -38 -48 -335 -864 -29 -80 -54 -147 -56 -149 -4 -4 -167 117 -224 167
l-35 31 24 31 c111 151 214 338 274 501 48 128 65 203 72 317 3 57 1 67 -20
88 -13 13 -32 25 -42 25 -10 1 -27 3 -38 4 -120 16 -435 28 -460 19 -8 -4 -15
-12 -15 -20 0 -13 26 -22 124 -44 60 -13 85 -26 114 -59 45 -51 56 -89 55
-201 -1 -158 -43 -322 -124 -487 -52 -104 -57 -109 -94 -77 -17 14 -44 38 -61
52 -259 222 -650 615 -861 865 -43 51 -80 94 -83 97 -21 19 -132 178 -168 240
-138 243 -131 544 18 697 97 99 214 146 360 145 151 -1 273 -54 372 -161 79
-86 118 -186 118 -302 0 -66 7 -89 25 -89 13 0 32 44 40 92 21 133 29 424 12
458 -36 71 -248 131 -472 133 -302 2 -516 -97 -694 -322 -47 -60 -101 -160
-101 -188 -1 -30 -21 16 -110 247 -45 118 -86 224 -91 235 -5 11 -77 198 -159
415 -83 217 -168 440 -189 495 -22 55 -60 156 -86 225 -89 236 -126 301 -153
267z m43 -772 c141 -403 195 -555 244 -694 28 -79 51 -152 51 -162 0 -16 -24
-17 -367 -17 -217 0 -370 4 -374 10 -3 5 11 59 32 121 21 62 88 267 149 457
61 190 117 359 123 375 6 17 12 35 13 40 1 6 9 28 18 49 14 35 18 38 31 25 8
-8 44 -99 80 -204z m981 -2114 l122 -1 67 -77 c210 -241 538 -572 790 -798
122 -109 115 -99 83 -127 -114 -100 -266 -174 -413 -203 -138 -26 -359 -27
-455 -1 -199 53 -372 199 -463 389 -62 128 -82 233 -81 417 2 124 20 216 61
310 42 96 44 98 110 95 32 -2 113 -3 179 -4z m2133 -933 c72 -205 131 -377
131 -381 0 -22 -149 22 -251 73 -57 29 -170 93 -208 119 -11 7 -11 16 2 52 9
24 46 136 82 249 81 251 84 260 100 260 7 0 67 -154 144 -372z m-306 -446 c29
-4 145 -7 259 -6 l207 0 31 -90 c17 -50 36 -106 43 -123 6 -18 8 -36 4 -39 -8
-8 -725 -11 -738 -3 -7 4 40 168 76 267 4 10 14 12 36 7 17 -4 54 -10 82 -13z"/>
</g>
</svg>
