<?xml version="1.0" standalone="no"?>
<!DOCTYPE svg PUBLIC "-//W3C//DTD SVG 20010904//EN"
 "http://www.w3.org/TR/2001/REC-SVG-20010904/DTD/svg10.dtd">
<svg version="1.0" xmlns="http://www.w3.org/2000/svg"
 width="512.000000pt" height="512.000000pt" viewBox="0 0 512.000000 512.000000"
 preserveAspectRatio="xMidYMid meet">
<metadata>
Created by potrace 1.14, written by Peter Selinger 2001-2017
</metadata>
<g transform="translate(0.000000,512.000000) scale(0.100000,-0.100000)"
fill="#000000" stroke="none">
<path d="M1658 4445 c-2 -2 -37 -6 -78 -10 -74 -7 -90 -9 -140 -20 -14 -3 -34
-7 -45 -9 -175 -34 -376 -122 -516 -228 -176 -133 -291 -312 -339 -528 -27
-118 -22 -350 9 -464 39 -146 97 -242 207 -347 70 -66 113 -98 175 -133 230
-127 347 -166 874 -296 336 -83 573 -167 699 -248 71 -46 163 -141 196 -203
57 -108 72 -276 35 -405 -19 -68 -78 -173 -127 -225 -118 -126 -330 -220 -554
-246 -88 -10 -430 -10 -509 0 -189 23 -376 75 -539 149 -74 33 -242 127 -273
152 -10 8 -48 39 -85 70 l-68 56 -37 -72 c-20 -40 -53 -108 -74 -150 l-38 -77
57 -51 c233 -211 624 -361 1062 -410 79 -8 470 -6 530 4 147 23 183 30 245 47
39 11 79 22 90 24 35 8 128 48 195 83 223 118 384 289 462 492 14 36 28 74 32
84 8 24 8 25 46 -64 18 -41 38 -88 46 -105 71 -157 267 -604 271 -617 5 -16
20 -18 127 -18 l121 0 115 263 c63 144 128 294 146 332 17 39 55 124 84 190
29 66 68 153 86 193 19 41 34 75 34 77 0 3 11 28 24 57 13 29 110 249 216 488
105 239 200 454 211 478 11 24 27 62 36 85 9 23 20 47 24 52 4 6 12 23 18 38
l11 27 -123 0 -122 -1 -289 -657 c-160 -361 -304 -688 -322 -727 -17 -38 -70
-158 -117 -265 -47 -107 -100 -226 -117 -265 l-31 -69 -43 100 c-24 55 -57
130 -75 167 -17 38 -31 70 -31 72 0 4 -29 71 -72 165 -11 25 -73 167 -138 315
-65 149 -162 369 -215 490 -53 121 -117 265 -140 320 -24 55 -55 127 -70 160
-16 33 -40 89 -56 125 l-27 65 -131 3 -131 3 9 -23 c10 -25 76 -175 109 -248
52 -113 82 -183 82 -191 0 -5 -17 1 -37 12 -73 41 -252 109 -408 155 -88 25
-166 47 -174 49 -82 17 -492 126 -590 157 -396 126 -560 296 -562 584 -1 167
53 302 170 424 92 96 304 190 506 225 84 14 428 14 520 -1 288 -45 524 -131
741 -271 20 -13 23 -8 82 131 34 80 62 151 62 159 0 16 -136 95 -245 143 -167
75 -419 143 -615 168 -90 11 -452 20 -462 11z"/>
</g>
</svg>
