<svg width="30" height="30" viewBox="0 0 30 30" fill="none" xmlns="http://www.w3.org/2000/svg">
<path d="M10 20C10 23.5355 10 25.3032 11.0984 26.4016C12.1967 27.5 13.9645 27.5 17.5 27.5H18.75C22.2855 27.5 24.0532 27.5 25.1516 26.4016C26.25 25.3032 26.25 23.5355 26.25 20V10C26.25 6.46446 26.25 4.6967 25.1516 3.59835C24.0532 2.5 22.2855 2.5 18.75 2.5H17.5C13.9645 2.5 12.1967 2.5 11.0984 3.59835C10 4.6967 10 6.46446 10 10" stroke="#8C6A40" stroke-width="2" stroke-linecap="round"/>
<path d="M10 24.375C7.05373 24.375 5.58059 24.375 4.66529 23.4597C3.75 22.5444 3.75 21.0712 3.75 18.125V11.875C3.75 8.92872 3.75 7.45559 4.66529 6.54029C5.58059 5.625 7.05373 5.625 10 5.625" stroke="#8C6A40" stroke-width="2"/>
<path d="M7.5 15H18.75M18.75 15L15.625 18.125M18.75 15L15.625 11.875" stroke="#8C6A40" stroke-width="2" stroke-linecap="round" stroke-linejoin="round"/>
</svg>
