<svg width="302" height="19" viewBox="0 0 302 19" fill="none" xmlns="http://www.w3.org/2000/svg">
<path d="M56 18V2.736H50.096V1.2H63.68V2.736H57.776V18H56ZM83.6053 1.2H85.3573V18H83.6053V1.2ZM73.0932 18H71.3172V1.2H73.0932V18ZM83.7732 10.248H72.9012V8.688H83.7732V10.248ZM97.2247 8.712H106.105V10.224H97.2247V8.712ZM97.4167 16.464H107.521V18H95.6407V1.2H107.161V2.736H97.4167V16.464ZM132.209 18.144C130.961 18.144 129.761 17.944 128.609 17.544C127.473 17.128 126.593 16.6 125.969 15.96L126.665 14.592C127.257 15.168 128.049 15.656 129.041 16.056C130.049 16.44 131.105 16.632 132.209 16.632C133.265 16.632 134.121 16.504 134.777 16.248C135.449 15.976 135.937 15.616 136.241 15.168C136.561 14.72 136.721 14.224 136.721 13.68C136.721 13.024 136.529 12.496 136.145 12.096C135.777 11.696 135.289 11.384 134.681 11.16C134.073 10.92 133.401 10.712 132.665 10.536C131.929 10.36 131.193 10.176 130.457 9.984C129.721 9.776 129.041 9.504 128.417 9.168C127.809 8.832 127.313 8.392 126.929 7.848C126.561 7.288 126.377 6.56 126.377 5.664C126.377 4.832 126.593 4.072 127.025 3.384C127.473 2.68 128.153 2.12 129.065 1.704C129.977 1.272 131.145 1.056 132.569 1.056C133.513 1.056 134.449 1.192 135.377 1.464C136.305 1.72 137.105 2.08 137.777 2.544L137.177 3.96C136.457 3.48 135.689 3.128 134.873 2.904C134.073 2.68 133.297 2.568 132.545 2.568C131.537 2.568 130.705 2.704 130.049 2.976C129.393 3.248 128.905 3.616 128.585 4.08C128.281 4.528 128.129 5.04 128.129 5.616C128.129 6.272 128.313 6.8 128.681 7.2C129.065 7.6 129.561 7.912 130.169 8.136C130.793 8.36 131.473 8.56 132.209 8.736C132.945 8.912 133.673 9.104 134.393 9.312C135.129 9.52 135.801 9.792 136.409 10.128C137.033 10.448 137.529 10.88 137.897 11.424C138.281 11.968 138.473 12.68 138.473 13.56C138.473 14.376 138.249 15.136 137.801 15.84C137.353 16.528 136.665 17.088 135.737 17.52C134.825 17.936 133.649 18.144 132.209 18.144ZM151.918 18L144.478 1.2H146.398L153.358 17.016H152.302L159.31 1.2H161.11L153.67 18H151.918ZM165.145 18L172.825 1.2H174.577L182.257 18H180.385L173.329 2.232H174.049L166.993 18H165.145ZM168.169 13.512L168.697 12.072H178.465L178.993 13.512H168.169ZM189.836 18V1.2H196.676C198.468 1.2 200.036 1.56 201.38 2.28C202.74 2.984 203.796 3.968 204.548 5.232C205.3 6.496 205.676 7.952 205.676 9.6C205.676 11.248 205.3 12.704 204.548 13.968C203.796 15.232 202.74 16.224 201.38 16.944C200.036 17.648 198.468 18 196.676 18H189.836ZM191.612 16.464H196.58C198.068 16.464 199.356 16.176 200.444 15.6C201.548 15.008 202.404 14.2 203.012 13.176C203.62 12.136 203.924 10.944 203.924 9.6C203.924 8.24 203.62 7.048 203.012 6.024C202.404 5 201.548 4.2 200.444 3.624C199.356 3.032 198.068 2.736 196.58 2.736H191.612V16.464ZM214.464 18V1.2H221.712C223.584 1.2 225.032 1.576 226.056 2.328C227.096 3.08 227.616 4.144 227.616 5.52C227.616 6.432 227.4 7.2 226.968 7.824C226.552 8.448 225.976 8.92 225.24 9.24C224.52 9.56 223.728 9.72 222.864 9.72L223.272 9.144C224.344 9.144 225.264 9.312 226.032 9.648C226.816 9.968 227.424 10.456 227.856 11.112C228.288 11.752 228.504 12.552 228.504 13.512C228.504 14.936 227.976 16.04 226.92 16.824C225.88 17.608 224.304 18 222.192 18H214.464ZM216.24 16.536H222.168C223.64 16.536 224.768 16.288 225.552 15.792C226.336 15.28 226.728 14.472 226.728 13.368C226.728 12.28 226.336 11.488 225.552 10.992C224.768 10.48 223.64 10.224 222.168 10.224H216.048V8.76H221.592C222.936 8.76 223.976 8.504 224.712 7.992C225.464 7.48 225.84 6.72 225.84 5.712C225.84 4.688 225.464 3.928 224.712 3.432C223.976 2.92 222.936 2.664 221.592 2.664H216.24V16.536ZM234.67 18L242.35 1.2H244.102L251.782 18H249.91L242.854 2.232H243.574L236.518 18H234.67ZM237.694 13.512L238.222 12.072H247.99L248.518 13.512H237.694Z" fill="white"/>
<line opacity="0.5" y1="8.5" x2="30" y2="8.5" stroke="white"/>
<line opacity="0.5" x1="272" y1="8.5" x2="302" y2="8.5" stroke="white"/>
</svg>
