<svg width="745" height="158" viewBox="0 0 745 158" fill="none" xmlns="http://www.w3.org/2000/svg">
<g filter="url(#filter0_d_510_35)">
<path d="M230.3 105H216V50.8H196.5V38.3H249.7V50.8H230.3V105ZM303.903 105H291.203V75.6C291.203 68.9 287.703 66.8 282.203 66.8C277.303 66.8 273.403 69.6 271.203 72.5V105H258.503V38.3H271.203V63C274.303 59.3 280.303 55.5 288.203 55.5C298.803 55.5 303.903 61.3 303.903 70.7V105ZM339.211 106.2C324.511 106.2 313.411 96.3 313.411 80.8C313.411 66.8 323.711 55.5 338.411 55.5C352.811 55.5 362.611 66.3 362.611 82.1V84.9H326.711C327.511 91 332.411 96.1 340.611 96.1C344.711 96.1 350.411 94.3 353.511 91.3L359.111 99.5C354.311 103.9 346.711 106.2 339.211 106.2ZM350.311 76.3C350.011 71.7 346.811 65.6 338.411 65.6C330.511 65.6 327.111 71.5 326.511 76.3H350.311ZM421.37 106.2C408.57 106.2 399.37 101.9 393.17 95.6L400.87 84.8C405.57 89.7 412.87 93.8 422.07 93.8C429.87 93.8 433.67 90.2 433.67 86.4C433.67 74.6 395.27 82.7 395.27 57.6C395.27 46.5 404.87 37.3 420.57 37.3C431.17 37.3 439.97 40.5 446.57 46.6L438.67 57C433.27 52 426.07 49.7 419.27 49.7C413.17 49.7 409.77 52.4 409.77 56.4C409.77 67 448.07 59.9 448.07 84.8C448.07 97 439.37 106.2 421.37 106.2ZM482.262 105H468.562L449.162 56.7H462.762L475.362 90.3L487.962 56.7H501.662L482.262 105ZM549.031 105H536.331V100C533.031 103.9 527.331 106.2 521.031 106.2C513.331 106.2 504.231 101 504.231 90.2C504.231 78.9 513.331 74.6 521.031 74.6C527.431 74.6 533.131 76.7 536.331 80.5V74C536.331 69.1 532.131 65.9 525.731 65.9C520.531 65.9 515.731 67.8 511.631 71.6L506.831 63.1C512.731 57.9 520.331 55.5 527.931 55.5C538.931 55.5 549.031 59.9 549.031 73.8V105ZM526.131 97.6C530.231 97.6 534.231 96.2 536.331 93.4V87.4C534.231 84.6 530.231 83.2 526.131 83.2C521.131 83.2 517.031 85.8 517.031 90.5C517.031 95 521.131 97.6 526.131 97.6ZM607.628 105H594.828V98.8C591.028 103.6 585.728 106.2 579.928 106.2C567.728 106.2 558.528 97 558.528 80.9C558.528 65.1 567.628 55.5 579.928 55.5C585.628 55.5 591.028 58 594.828 62.9V38.3H607.628V105ZM583.828 94.9C588.128 94.9 592.728 92.6 594.828 89.4V72.3C592.728 69.1 588.128 66.8 583.828 66.8C576.628 66.8 571.628 72.5 571.628 80.9C571.628 89.2 576.628 94.9 583.828 94.9ZM632.922 89.5C635.022 92.6 639.722 94.9 643.822 94.9C651.222 94.9 656.122 89.3 656.122 80.9C656.122 72.5 651.222 66.8 643.822 66.8C639.722 66.8 635.022 69.2 632.922 72.4V89.5ZM632.922 105H620.222V38.3H632.922V62.9C636.722 58 642.122 55.5 647.822 55.5C660.122 55.5 669.222 65.1 669.222 80.9C669.222 97 660.022 106.2 647.822 106.2C642.022 106.2 636.722 103.6 632.922 98.8V105ZM720.516 105H707.816V100C704.516 103.9 698.816 106.2 692.516 106.2C684.816 106.2 675.716 101 675.716 90.2C675.716 78.9 684.816 74.6 692.516 74.6C698.916 74.6 704.616 76.7 707.816 80.5V74C707.816 69.1 703.616 65.9 697.216 65.9C692.016 65.9 687.216 67.8 683.116 71.6L678.316 63.1C684.216 57.9 691.816 55.5 699.416 55.5C710.416 55.5 720.516 59.9 720.516 73.8V105ZM697.616 97.6C701.716 97.6 705.716 96.2 707.816 93.4V87.4C705.716 84.6 701.716 83.2 697.616 83.2C692.616 83.2 688.516 85.8 688.516 90.5C688.516 95 692.616 97.6 697.616 97.6Z" fill="url(#paint0_linear_510_35)"/>
</g>
<g filter="url(#filter1_d_510_35)">
<path d="M69.8824 16.7646C44.5423 16.7646 24 37.3069 24 62.647C24 77.966 31.5096 91.5295 43.046 99.8632C42.132 95.8376 41.647 91.6509 41.647 87.3527C41.647 84.3382 41.8887 81.3795 42.3459 78.4915C39.6565 73.8277 38.1178 68.4171 38.1178 62.6468C38.1178 45.1036 52.3392 30.8822 69.8824 30.8822C87.4256 30.8822 101.647 45.1036 101.647 62.6468C101.647 77.4459 91.526 89.8814 77.8284 93.4095C79.313 98.3733 82.5719 102.576 86.8676 105.281C103.799 98.5291 115.765 81.986 115.765 62.6466C115.765 37.3069 95.2226 16.7646 69.8824 16.7646Z" fill="url(#paint1_linear_510_35)"/>
</g>
<g filter="url(#filter2_d_510_35)">
<path d="M124.954 50.1368C125.868 54.1624 126.353 58.3491 126.353 62.6473C126.353 65.6627 126.114 68.6234 125.656 71.512C128.344 76.1752 129.882 81.5843 129.882 87.3532C129.882 104.896 115.661 119.118 98.1175 119.118C80.5743 119.118 66.3529 104.896 66.3529 87.3532C66.3529 72.5541 76.4739 60.1186 90.1715 56.5905C88.687 51.6267 85.428 47.4244 81.1324 44.7195C64.2014 51.4709 52.2354 68.014 52.2354 87.3534C52.2354 112.694 72.7776 133.236 98.1178 133.236C123.458 133.236 144 112.693 144 87.353C144 72.034 136.49 58.4705 124.954 50.1368Z" fill="url(#paint2_linear_510_35)"/>
</g>
<defs>
<filter id="filter0_d_510_35" x="180.7" y="21.5" width="563.616" height="108.5" filterUnits="userSpaceOnUse" color-interpolation-filters="sRGB">
<feFlood flood-opacity="0" result="BackgroundImageFix"/>
<feColorMatrix in="SourceAlpha" type="matrix" values="0 0 0 0 0 0 0 0 0 0 0 0 0 0 0 0 0 0 127 0" result="hardAlpha"/>
<feOffset dx="4" dy="4"/>
<feGaussianBlur stdDeviation="9.9"/>
<feComposite in2="hardAlpha" operator="out"/>
<feColorMatrix type="matrix" values="0 0 0 0 0 0 0 0 0 0 0 0 0 0 0 0 0 0 0.25 0"/>
<feBlend mode="normal" in2="BackgroundImageFix" result="effect1_dropShadow_510_35"/>
<feBlend mode="normal" in="SourceGraphic" in2="effect1_dropShadow_510_35" result="shape"/>
</filter>
<filter id="filter1_d_510_35" x="0.200001" y="0.964619" width="131.365" height="128.116" filterUnits="userSpaceOnUse" color-interpolation-filters="sRGB">
<feFlood flood-opacity="0" result="BackgroundImageFix"/>
<feColorMatrix in="SourceAlpha" type="matrix" values="0 0 0 0 0 0 0 0 0 0 0 0 0 0 0 0 0 0 127 0" result="hardAlpha"/>
<feOffset dx="-4" dy="4"/>
<feGaussianBlur stdDeviation="9.9"/>
<feComposite in2="hardAlpha" operator="out"/>
<feColorMatrix type="matrix" values="0 0 0 0 0 0 0 0 0 0 0 0 0 0 0 0 0 0 0.25 0"/>
<feBlend mode="normal" in2="BackgroundImageFix" result="effect1_dropShadow_510_35"/>
<feBlend mode="normal" in="SourceGraphic" in2="effect1_dropShadow_510_35" result="shape"/>
</filter>
<filter id="filter2_d_510_35" x="28.4354" y="28.9195" width="131.365" height="128.116" filterUnits="userSpaceOnUse" color-interpolation-filters="sRGB">
<feFlood flood-opacity="0" result="BackgroundImageFix"/>
<feColorMatrix in="SourceAlpha" type="matrix" values="0 0 0 0 0 0 0 0 0 0 0 0 0 0 0 0 0 0 127 0" result="hardAlpha"/>
<feOffset dx="-4" dy="4"/>
<feGaussianBlur stdDeviation="9.9"/>
<feComposite in2="hardAlpha" operator="out"/>
<feColorMatrix type="matrix" values="0 0 0 0 0 0 0 0 0 0 0 0 0 0 0 0 0 0 0.25 0"/>
<feBlend mode="normal" in2="BackgroundImageFix" result="effect1_dropShadow_510_35"/>
<feBlend mode="normal" in="SourceGraphic" in2="effect1_dropShadow_510_35" result="shape"/>
</filter>
<linearGradient id="paint0_linear_510_35" x1="460.5" y1="13" x2="460.5" y2="135" gradientUnits="userSpaceOnUse">
<stop stop-color="#CBC394"/>
<stop offset="1" stop-color="#FE4444"/>
</linearGradient>
<linearGradient id="paint1_linear_510_35" x1="69.8823" y1="16.7646" x2="69.8823" y2="105.281" gradientUnits="userSpaceOnUse">
<stop stop-color="#CBC394"/>
<stop offset="1" stop-color="#FE4444"/>
</linearGradient>
<linearGradient id="paint2_linear_510_35" x1="98.1177" y1="44.7195" x2="98.1177" y2="133.236" gradientUnits="userSpaceOnUse">
<stop stop-color="#CBC394"/>
<stop offset="1" stop-color="#FE4444"/>
</linearGradient>
</defs>
</svg>
