<svg width="30" height="31" viewBox="0 0 30 31" fill="none" xmlns="http://www.w3.org/2000/svg">
<g clip-path="url(#clip0_52_2148)">
<path fill-rule="evenodd" clip-rule="evenodd" d="M24.7216 6.06092C26.0815 5.48833 27.5394 6.63825 27.2992 8.09411L24.4631 25.29C24.1896 26.948 22.3686 27.8994 20.8475 27.0731C19.5746 26.3817 17.6861 25.3176 15.9841 24.2055C15.1342 23.6501 12.5319 21.8694 12.8517 20.6017C13.1252 19.5179 17.5001 15.4455 20.0001 13.0236C20.9821 12.0723 20.5349 11.5227 19.3751 12.3986C16.4981 14.5715 11.8791 17.8751 10.3517 18.8049C9.00403 19.6251 8.30038 19.7651 7.46107 19.6251C5.92841 19.3697 4.50745 18.9742 3.34734 18.4934C1.77938 17.8434 1.85576 15.6886 3.34628 15.0611L24.7216 6.06092Z" fill="#DCB87F"/>
</g>
<defs>
<clipPath id="clip0_52_2148">
<rect width="30" height="30" fill="white" transform="translate(0 0.523682)"/>
</clipPath>
</defs>
</svg>
